<svg xmlns="http://www.w3.org/2000/svg" data-name="Ebene 1" viewBox="0 0 1880.813 1056.863"><path fill="#053634" d="M1122.919 648.91l130.14-3.992c-18.379 16.072 13.217 60.568 71.59 120.027l-116.834 17.298c-71.237-58.205-119.295-108.982-84.896-133.333z"/><path fill="#07423f" d="M1124.16 646.337c-70.231-13.813-109.462-11.702-148.7-19.895l-7.114-1.363c-37.576 79.808-46.802 140.486-11.672 186.616 22.325 28.74 97.641 68.953 126.325 46.485.087-.198 153.825-54.912 153.825-54.912-84.892-73.771-115.502-127.745-112.663-156.93z"/><path fill="#419e98" d="M804.237 817.748c-30.572-19.22-132.313-17.038-132.313-17.038L133.015 969.118l8.612 46.983c156.78-22.075 298.563-1.718 434.614-66.18 0 0 83.24-21.495 117.178-21.727a733.387 733.387 0 0 0 184.983 21.727s-41.296-111.467-74.165-132.173z"/><path fill="#8a9097" d="M1669.883 824.534c-3.236-.406-6.469-.79-9.87-1.193 5.846 9.853 13.105 19.711 20.875 28.13-1.088-8.69-1.914-17.71-1.818-25.755-2.881-.391-5.95-.776-9.187-1.182z" data-name="Path"/><path fill="#a4abb3" d="M1640.576 820.79c-19.208-2.586-34.21-4.732-34.21-4.732l-1.794 99.617 34.564-5.687 58.87-9.521 29.775-4.908c8.426 6.637 27.435 20.63 41.765 21.048 3.928.247 7.8-1.028 10.812-3.562 12.387-10.86-11.118-26.987-23.275-34.187 2.241-29.14 11.519-88.766 49.453-101.988l-4.897-3.34a306.71 306.71 0 0 0-46.824 4.096 171.759 171.759 0 0 0-17.638 3.793c-35.619 8.979-52.85 16.396-52.85 16.396a116.503 116.503 0 0 0-4.636 20.213c-.372 2.409-.585 4.933-.817 7.484a89.206 89.206 0 0 0 1.613 25.126 155.918 155.918 0 0 1-20.483-27.507c-6.802-.807-13.275-1.62-19.412-2.39l-.016.05z" data-name="Path"/><path fill="#def5f3" d="M1846.138 946.477c30.177-13.927 39.898-55.788 32.107-122.31-3.257-27.356-18.862-41.815-36.963-49.3-.17-.184-.357-.178-.336-.346-10.794-16.58-35.682-32.535-62.637-18.531-23.269-22.778-57.86-29.524-87.983-17.159-30.123 12.365-50 41.469-50.555 74.026-.045 2.545.078 5.11.18 7.844 6.141.794 12.617 1.77 19.204 2.564 3.237.406 6.637.81 9.874 1.215 3.236.406 6.824.804 9.874 1.216.232-2.551.507-5.274.883-7.66.928-6.847 2.458-13.6 4.572-20.178 0 0 16.586-7.034 52.15-16.357 6.005-1.417 11.988-2.667 17.642-3.77a286.07 286.07 0 0 1 46.824-4.096l4.894 3.317c-37.895 13.027-47.283 72.694-49.454 101.988 12.16 7.223 35.594 23.337 23.28 34.21-3.012 2.534-7.491 3.567-11.42 3.32-14.147-1.171-32.094-14.293-40.493-20.911l-30.473 4.807-58.87 9.52c7.958 32.153 7.782 41.162 40.568 45.877 62.674 4.642 141.598-4.643 167.132-9.286z" data-name="Path"/><path fill="#b6ede8" d="M1624.946 942.65c-.001-2.18 19.142-25.036 19.142-25.036l21.262-11.92-44.393-92.4-26.707-4.36s-53.961-48.447-130.472-67.376c-30.956-7.654-56.203-15.961-101.029 1.844-69.123 27.48-174.6 38.607-174.6 38.607-83.813 15.128-139.738 30.621-193.186 34.54l127.968 150.31 502.015-24.208z" data-name="Path"/><path fill="#54aba4" d="M918.049 800.106a1038.681 1038.681 0 0 0-126.208-8.264s-47.354 66.551-39.624 120.707c80.038 52.136 276.673 55.246 276.673 55.246 32.498 10.91 92.294 16.365 119.57-10.933 20.502-20.52-.395-95.544-29.086-105.711-42.098-15-85.01-27.61-128.53-37.767-26.09-5.943-50.72-10.47-72.795-13.278z" data-name="Path"/><path fill="#54aba4" d="M1082.437 793.273c69.638-6.964 139.277 109.1 111.421 162.49l-39.462 2.32-164.81-141.597 92.85-23.213z" data-name="Path"/><path fill="#0e5b57" d="M134.478 968.724L3.163 870.789l-.232.58a67.433 67.433 0 0 0 8.45 57.15l85.77 128.344 45.962-41.157-8.635-46.982zM299.35 957.252L138.443 919.85l.014.613a67.433 67.433 0 0 0 30.563 49.026l129.9 83.448 25.722-55.762-25.292-39.922z" data-name="Path"/><path fill="#54aba4" d="M792.445 793.258l-.604-1.416-491.676 166.242 20.892 46.425c173.957-10.399 276.563-29.657 353.002-54.913 141.204-46.541 142.782-97.818 118.386-156.338z" data-name="Path"/><path fill="#8a9097" d="M927.166 983.171c11.867 5.183 78.275-.446 78.275-.446l-20.813-66.963-80.674 46.518s11.366 15.698 23.212 20.891z" data-name="Path"/><path fill="#a4abb3" d="M1040.231 915.42c-3.838 2.03-55.603.342-55.603.342l20.813 66.963 47.086-24.177-11.776-43.386-.52.258z" data-name="Path"/><path fill="#8dd2cd" d="M1323.85 897.73c-6.964 2.322-32.498-2.32-66.574-5.45-72.286-7.87-166.116 7.289-226.907 15.304l10.167 57.134s321.086 20.346 321.239 18.301c3.858-13.329-25.046-83.082-37.925-85.288z" data-name="Path"/><path fill="#8dd2cd" d="M1568.725 857.462c55.087-1.785 75.462 12.413 75.462 49.554-9.286 44.104-44.45 54.326-88.21 64.995-43.76 10.67-148.124 17.909-194.987 11.607-13.895-49.096-18.57-67.317-37.14-85.887l244.875-40.269z" data-name="Path"/><path fill="#54aba4" d="M1382.133 572.53l29.275 138.922 54.291 13.306-20.758-182.39c-20.093-16.678-62.675-2.573-62.808 30.162z"/><path fill="#18837e" d="M1430.845 245.01a979.923 979.923 0 0 1-4.749 8.344c-1.583 2.78-3.35 5.822-4.988 8.954-5.745-10.736-9.21-22.135-10.577-33.928 5.776 6.442 12.896 11.952 20.315 16.63z"/><path fill="#66b8b2" d="M1421.186 262.223c-12.822 23.713-25.026 46.586-25.026 46.586l-80.55-56.511 66.486-65.693 21.024-20.905c-.472-10.53-.577-33.979 7.506-45.5a14.996 14.996 0 0 1 9.067-6.583 8.515 8.515 0 0 1 3.934-.13c5.754.86 8.368 7.142 9.57 14.776.976 7.912 1 15.912.07 23.829 24.615 15.16 76.977 40.88 110.153 19.753l-.107 5.877a315.056 315.056 0 0 1-30.321 34.982c-4.153 4.108-8.525 8.033-13.257 11.936-27.905 23.301-43.847 32.516-43.847 32.516a111.878 111.878 0 0 1-25.278-11.783 88.037 88.037 0 0 1-19.941-16.879 133.284 133.284 0 0 0 9.687 32.483l.83 1.246z" data-name="Path"/><path fill="#053634" d="M1429.604 33.514c23.183-33.265 67.937-43.308 103.112-23.14 35.174 20.168 49.115 63.865 32.118 100.677a57.69 57.69 0 0 1 1.025 33.629l-.05.399c8.531 21.818 4.281 58.97-40.322 66.741l-12.606.836a293.298 293.298 0 0 0 30.322-34.983l.107-5.877c-32.45 22.655-85.538-4.593-110.153-19.753a99.698 99.698 0 0 0-.07-23.828c-1.203-7.634-3.911-13.782-9.57-14.776a10.691 10.691 0 0 0-3.934.13 14.996 14.996 0 0 0-8.957 6.631c-8.015 11.713-7.924 34.892-7.506 45.5l-21.024 20.905c2.642-61.423 22.994-86.643 34.42-97.205a76.565 76.565 0 0 1 13.22-55.909l-.132.023z" data-name="Path"/><path fill="#4e5256" d="M1179.51 260.54s-115.806 126.064-210.785 362.93l-.213.868c-3.926 9.925 47.243 20.048 60.55 21.29l232.005-427.165c-24.54-7.468-51.525 4.926-81.558 42.077z"/><path fill="#595e62" d="M1252.723 645.367c-13.648.29-159.877 7.668-224.104.216 38.414-132.065 124.77-279.689 232.416-427.141l.278-.367c2.177.685 51.888 17.714 51.888 17.714l21.897-12.892 76.154 57.662-7.328 23.924 18.043 30.612 3.444 5.883s-11.366 40.706-16.456 112.554c-.003.768-.13 1.443-.133 2.212.081 29.148-8.474 52.912-45.812 84.163-12.395 10.264-25.345 21.261-38.203 32.137-21.677 18.453-72.085 73.324-72.085 73.324h.001z"/><path fill="#71767c" d="M1286.416 251.137c-10.353-30.224-19.785-42.856-65.56-30.437-38.59 39.388-33.799 56.687-15.968 141.584 12.065 48.259 28.742 86.227 55.356 128.809 8.283-13.374 18.935-20.71 65.203-34.598-9.847-42.581-25.283-119.76-39.03-205.358z"/><path fill="#656a6f" d="M1425.424 340.816l-52.003 190.168c-.203 10.674 1.26 27.707 8.712 41.546 2.13-30.872 37.259-46.84 62.808-30.162-18.097-129.519 3.193-172.633-19.517-201.552z"/><path fill="#66b8b2" d="M1474.334 722.62l-54.364-11.979c-21.346-58.51-92.91-254.62-94.292-254.314-18.417-3.025-53.392 14.739-65.45 34.799-2.143 56.527 62.646 136.76 111.213 239.02-.307 6.756 1.075 16.432 8.6 26.72 14.283 19.811 51.061 3.022 51.061 3.022 29.255-5.839 41.783-1.065 77.977-1.33 16.726-.034 18.097 2.394 21.025-8.783 0 0-9.238-10.262-55.77-27.155z"/><path fill="#419e98" d="M1410.476 766.408l15.037 16.634c26.347-.888 33.71-4.88 59.348-25.106-28.743-9.048-55.489-5.9-62.542-2.572l-11.843 11.044z"/></svg>